HIERARCHY
ROOT Hips
{
	OFFSET 0.00 0.00 0.00
	CHANNELS 6 Xposition Yposition Zposition Xrotation Yrotation Zrotation
	JOINT LeftUpLeg
	{
		OFFSET 2.83210 0.00000 0.00000
		CHANNELS 3 Xrotation Yrotation Zrotation
		JOINT LeftLeg
		{
			OFFSET 0.00000 -16.27150 0.00000
			CHANNELS 3 Xrotation Yrotation Zrotation
			JOINT LeftFoot
			{
				OFFSET 0.00000 -14.95190 0.00000
				CHANNELS 3 Xrotation Yrotation Zrotation
				JOINT LeftToeBase
				{
					OFFSET 0.00000 -1.07991 4.03030
					CHANNELS 3 Xrotation Yrotation Zrotation
					End Site
					{
						OFFSET 0.00000 0.00000 2.95275
					}
				}
			}
		}
	}
	JOINT RightUpLeg
	{
		OFFSET -2.83210 0.00000 0.00000
		CHANNELS 3 Xrotation Yrotation Zrotation
		JOINT RightLeg
		{
			OFFSET 0.00000 -16.27150 0.00000
			CHANNELS 3 Xrotation Yrotation Zrotation
			JOINT RightFoot
			{
				OFFSET 0.00000 -14.95190 0.00000
				CHANNELS 3 Xrotation Yrotation Zrotation
				JOINT RightToeBase
				{
					OFFSET 0.00000 -1.07991 4.03030
					CHANNELS 3 Xrotation Yrotation Zrotation
					End Site
					{
						OFFSET 0.00000 0.00000 2.95275
					}
				}
			}
		}
	}
	JOINT Spine
	{
		OFFSET 0.00000 0.03937 0.00000
		CHANNELS 3 Xrotation Yrotation Zrotation
		JOINT Spine1
		{
			OFFSET 0.00000 8.01054 0.00000
			CHANNELS 3 Xrotation Yrotation Zrotation
			JOINT Neck
			{
				OFFSET 0.00000 8.21888 0.00000
				CHANNELS 3 Xrotation Yrotation Zrotation
				JOINT Head
				{
					OFFSET 0.00000 3.25664 0.00000
					CHANNELS 3 Xrotation Yrotation Zrotation
					End Site
					{
						OFFSET 0.00000 4.52755 0.00000
					}
				}
			}
			JOINT LeftShoulder
			{
				OFFSET 0.00000 8.21888 0.00000
				CHANNELS 3 Xrotation Yrotation Zrotation
				JOINT LeftArm
				{
					OFFSET 6.52904 -0.00002 0.00000
					CHANNELS 3 Xrotation Yrotation Zrotation
					JOINT LeftForeArm
					{
						OFFSET 10.44840 -0.00004 0.00000
						CHANNELS 3 Xrotation Yrotation Zrotation
						JOINT LeftHand
						{
							OFFSET 8.94727 -0.00003 0.00000
							CHANNELS 3 Xrotation Yrotation Zrotation
							JOINT LeftHandThumb
							{
								OFFSET 0.00000 0.00000 0.00000
								CHANNELS 3 Xrotation Yrotation Zrotation
								End Site
								{
									OFFSET 0.00000 0.00000 3.93700
								}
							}
							JOINT L_Wrist_End
							{
								OFFSET 3.93700 -0.00001 0.00000
								CHANNELS 3 Xrotation Yrotation Zrotation
							}
						}
					}
				}
			}
			JOINT RightShoulder
			{
				OFFSET 0.00000 8.21888 0.00000
				CHANNELS 3 Xrotation Yrotation Zrotation
				JOINT RightArm
				{
					OFFSET -6.52904 -0.00002 0.00000
					CHANNELS 3 Xrotation Yrotation Zrotation
					JOINT RightForeArm
					{
						OFFSET -10.44840 -0.00004 0.00000
						CHANNELS 3 Xrotation Yrotation Zrotation
						JOINT RightHand
						{
							OFFSET -8.94727 -0.00003 0.00000
							CHANNELS 3 Xrotation Yrotation Zrotation
							JOINT RightHandThumb
							{
								OFFSET 0.00000 0.00000 0.00000
								CHANNELS 3 Xrotation Yrotation Zrotation
								End Site
								{
									OFFSET 0.00000 0.00000 3.93700
								}
							}
							JOINT R_Wrist_End
							{
								OFFSET -5.39369 -0.00002 0.00000
								CHANNELS 3 Xrotation Yrotation Zrotation
							}
						}
					}
				}
			}
		}
	}
}
MOTION
Frames: 9
Frame Time: 0.008333
 63.9698 35.0015 -4.3292 109.8659 82.7967 -108.9463 -25.3072 10.3586 0.3368 5.5136 -0.0000 0.0000 49.3854 12.2379 -9.4053 -4.6465 0.0000 0.0000 6.8923 -3.1068 2.6386 7.3798 -0.0000 0.0000 40.2875 -7.6001 26.5978 19.5196 -0.0000 0.0000 -11.1098 5.4309 -8.9783 13.0096 -1.9446 9.0401 -26.8700 14.7392 -3.0343 13.2573 -35.8919 -4.2627 19.6592 22.0158 -5.4803 -0.1237 -18.5053 -76.7953 -0.0000 -4.6959 -0.0000 -9.3654 -4.9958 -18.0598 0.0000 0.0000 -0.0000 0.0000 0.0000 -0.0000 15.1049 -14.2764 -1.4046 -27.5708 40.0769 75.1174 -0.0001 18.5409 0.0000 -1.9513 -7.4289 -4.7694 0.0000 0.0000 0.0000 0.0000 0.0000 0.0000
 64.3995 34.9371 -4.4251 110.6352 83.1364 -109.3118 -24.5086 10.3226 -0.1730 6.7323 -0.0000 0.0000 49.4515 12.5095 -8.9447 -4.2181 -0.0000 -0.0000 7.2772 -3.9540 1.9865 8.5595 -0.0000 0.0000 40.3741 -7.0733 27.2845 19.5196 -0.0000 0.0000 -11.1117 5.5121 -8.9926 13.1822 -2.0050 8.5714 -26.6533 14.6795 -2.9470 12.8180 -36.0295 -4.2651 19.6723 22.0570 -5.1885 0.4863 -18.6395 -76.8190 -0.0000 -4.4927 -0.0000 -9.5196 -5.0399 -17.8947 -0.0000 0.0000 -0.0000 -0.0000 0.0000 -0.0000 15.2313 -14.4143 -1.3270 -27.2064 39.9902 75.1788 -0.0001 18.7065 0.0000 -2.0051 -7.3714 -4.6127 -0.0000 0.0000 -0.0000 -0.0000 0.0000 -0.0000
 64.8178 34.8739 -4.5196 110.8458 83.3901 -109.0840 -23.7656 10.0858 -0.7193 8.0223 0.0000 -0.0000 48.4649 12.9953 -7.8788 -6.4237 -0.0000 0.0000 7.4137 -4.6191 1.2834 9.9142 0.0000 -0.0000 40.4505 -6.6007 28.6590 19.5196 -0.0000 -0.0000 -11.0766 5.5550 -9.1318 13.1959 -2.0258 8.2619 -26.6451 14.4003 -3.1101 12.8023 -35.8095 -3.9626 19.5737 22.0618 -4.9666 1.1890 -18.9125 -76.8258 -0.0000 -4.2101 -0.0000 -9.3415 -4.8532 -17.6644 -0.0000 -0.0000 -0.0000 -0.0000 -0.0000 -0.0000 15.3652 -14.6120 -1.2861 -26.7789 39.9617 75.1869 -0.0001 18.9046 0.0000 -2.0845 -7.4077 -4.3748 -0.0000 0.0000 -0.0000 -0.0000 0.0000 -0.0000
 65.2735 34.8024 -4.6245 111.0038 83.8046 -108.7459 -22.6676 9.9359 -1.3201 9.1000 0.0000 0.0000 45.6071 13.0220 -6.5592 -10.5537 -0.0000 -0.0000 7.6333 -5.4040 0.4097 11.3951 0.0000 -0.0000 40.7641 -5.9535 29.4451 19.5196 0.0000 0.0000 -11.1840 5.6787 -9.1786 13.5037 -2.0803 7.7514 -26.4243 14.3338 -3.0437 12.3608 -35.8563 -3.8680 19.5489 22.1849 -4.5673 1.6004 -19.2731 -77.0059 -0.0000 -3.8210 -0.0000 -8.8436 -4.5745 -17.4442 -0.0000 0.0000 -0.0000 -0.0000 0.0000 -0.0000 15.4246 -14.7999 -1.2823 -26.2407 40.1028 75.2295 -0.0001 19.0703 0.0000 -2.3075 -7.3982 -4.2289 -0.0000 0.0000 -0.0000 -0.0000 0.0000 -0.0000
 65.7161 34.7311 -4.7468 110.8021 84.2325 -107.9121 -21.4450 9.9239 -2.1179 9.7527 -0.0000 0.0000 42.0257 13.1740 -5.8206 -9.7213 -0.0000 -0.0000 7.5801 -6.3428 -0.7071 13.2879 -0.0000 -0.0000 41.1091 -5.0047 30.3534 19.5196 0.0000 0.0000 -11.1514 5.7671 -9.2927 13.6341 -2.1356 7.2089 -26.4081 14.2075 -3.0654 12.3146 -35.7110 -3.5919 19.5031 22.2562 -4.2653 2.0300 -19.5882 -77.1478 -0.0000 -3.3948 -0.0000 -7.8561 -3.9485 -17.5246 -0.0000 0.0000 -0.0000 -0.0000 0.0000 -0.0000 15.4926 -14.9957 -1.2472 -25.5880 40.3204 75.1445 -0.0001 19.2337 0.0000 -2.5529 -7.4196 -4.0318 0.0000 0.0000 -0.0000 0.0000 0.0000 -0.0000
 66.1446 34.6720 -4.9068 109.7853 84.5957 -105.9104 -20.1278 9.9245 -3.3919 10.1369 -0.0000 -0.0000 39.5717 13.8505 -6.2048 -9.6952 0.0000 0.0000 7.0798 -7.5702 -2.3807 15.5935 0.0000 0.0000 41.7119 -3.7407 31.0564 19.5196 -0.0000 -0.0000 -11.1240 5.8528 -9.5610 13.7134 -2.2093 6.5380 -26.3862 14.0302 -3.1843 12.3115 -35.3906 -3.2386 19.4958 22.2767 -4.1936 2.4064 -19.8917 -77.1798 -0.0000 -2.8995 -0.0000 -7.2340 -3.7653 -17.4363 -0.0000 -0.0000 0.0000 -0.0000 -0.0000 0.0000 15.6111 -15.1480 -1.0948 -24.8862 40.6023 74.8282 -0.0001 19.3415 0.0000 -2.7361 -7.4916 -3.7806 0.0000 0.0000 -0.0000 0.0000 0.0000 -0.0000
 66.5501 34.6355 -5.0902 108.0971 84.7961 -102.9220 -18.8620 9.6543 -5.0279 10.1771 -0.0000 0.0000 37.7559 14.5054 -6.4011 -9.4567 -0.0000 0.0000 6.0485 -8.8087 -4.5106 18.1736 -0.0000 -0.0000 42.6256 -2.4287 31.6770 19.5196 -0.0000 0.0000 -11.2236 5.9334 -9.9982 13.8606 -2.3273 5.7533 -26.1039 13.8927 -3.3067 11.9210 -35.0510 -2.9795 19.4374 22.2009 -4.3633 2.7150 -19.9862 -77.0767 -0.0000 -2.4150 -0.0000 -6.4381 -3.4103 -17.2185 -0.0000 0.0000 -0.0000 -0.0000 0.0000 -0.0000 15.7129 -15.1963 -0.7851 -24.1657 40.8353 74.3155 -0.0001 19.3797 0.0000 -2.9649 -7.6041 -3.6064 -0.0000 0.0000 -0.0000 -0.0000 0.0000 -0.0000
 66.9315 34.6276 -5.2698 106.2437 84.7983 -99.6077 -17.7855 8.9826 -6.8200 9.8425 0.0000 0.0000 36.7149 15.2489 -6.2122 -9.2827 -0.0000 0.0000 4.5555 -9.7737 -6.8205 20.9142 -0.0000 0.0000 43.8990 -1.4921 32.4286 19.5196 0.0000 0.0000 -11.4341 6.0001 -10.5052 14.0233 -2.5342 4.7874 -25.9976 13.9123 -3.2809 11.7292 -34.8230 -2.7147 19.3704 22.0238 -4.6908 2.9102 -19.8647 -76.8045 -0.0000 -2.0153 -0.0000 -5.9719 -3.0340 -17.1349 -0.0000 0.0000 -0.0000 -0.0000 0.0000 -0.0000 15.9917 -15.1530 -0.1875 -23.6494 41.0206 73.7072 -0.0001 19.2521 0.0000 -3.0303 -7.6023 -3.4951 -0.0000 0.0000 0.0000 -0.0000 0.0000 0.0000
 67.3179 34.6391 -5.4438 105.3439 84.8138 -97.1588 -16.6133 8.2542 -8.7079 9.1898 -0.0000 0.0000 36.1778 16.0040 -5.7060 -9.3979 0.0000 0.0000 2.9745 -10.5800 -9.2158 23.6870 0.0000 -0.0000 45.4376 -0.9332 33.4957 19.5196 0.0000 -0.0000 -11.7141 6.1512 -10.8459 14.3381 -2.8590 3.3509 -26.0139 13.8735 -3.1723 11.7860 -34.6676 -2.1996 19.2971 21.7756 -4.8297 2.8769 -19.8376 -76.4991 -0.0000 -1.5497 -0.0000 -5.7330 -2.7727 -17.1897 0.0000 0.0000 0.0000 0.0000 0.0000 0.0000 16.3306 -15.0715 0.6578 -23.2165 41.0547 73.2102 -0.0001 19.0485 0.0000 -3.0176 -7.6620 -3.6081 -0.0000 0.0000 -0.0000 -0.0000 0.0000 -0.0000
